<?xml version="1.0" encoding="utf-8"?>
<!-- Generator: Adobe Illustrator 25.2.0, SVG Export Plug-In . SVG Version: 6.00 Build 0)  -->
<svg version="1.1" xmlns="http://www.w3.org/2000/svg" xmlns:xlink="http://www.w3.org/1999/xlink" x="0px" y="0px"
	 viewBox="0 0 500 500" style="enable-background:new 0 0 500 500;" xml:space="preserve">
<style type="text/css">
	.st0{display:none;}
	.st1{display:inline;}
</style>
<g id="Layer_1" class="st0">
	<path class="st1" d="M427.98,188.76L294.23,67.19c-25.25-22.92-63.38-22.92-88.45,0L72.02,188.76C58.06,201.48,50,219.56,50,238.72
		v144.14C50,419.92,79.54,450,116.25,450h267.5c36.53,0,66.25-30.08,66.25-67.14V238.72C450,219.56,441.94,201.48,427.98,188.76z
		 M396.46,356.89c0,28.11-21.66,44.05-48.52,44.05H151.88c-26.68,0-48.52-15.94-48.52-44.05V247.14c0-14.5,5.91-28.47,16.12-38.14
		l98.12-92.57c18.44-17.37,46.37-17.37,64.82,0L380.35,209c10.38,9.67,16.11,23.63,16.11,38.14V356.89z"/>
</g>
<g id="Layer_2">
	<g>
		<path d="M326.53,50.09H173.3c-68.06,0-123.3,55.06-123.3,123.3v153.23c0,68.06,55.23,123.3,123.3,123.3h153.23
			c68.24,0,123.47-55.23,123.47-123.3V173.39C450,105.14,394.77,50.09,326.53,50.09z M423.45,317.71
			c0,58.44-47.39,105.84-105.84,105.84H182.21c-58.44,0-105.84-47.39-105.84-105.84V182.29c0-58.44,47.39-105.84,105.84-105.84
			h135.41c58.44,0,105.84,47.39,105.84,105.84V317.71z"/>
		<path d="M311.2,148.98l-101.56,46.68c-7.31,3.39-13.01,9.44-16.21,16.75l-44.19,102.63c-10.33,24.23,14.61,48.64,38.66,37.59
			l101.38-46.68c7.31-3.39,13.19-9.44,16.39-16.75l44.01-102.63C360.2,162.34,335.08,137.93,311.2,148.98z M303.36,201.72
			l-31.72,67.17c-0.71,1.6-1.96,2.85-3.56,3.56l-66.28,33.5c-4.63,2.32-8.55-1.43-6.24-6.06l31.71-67.17
			c0.71-1.6,1.96-2.85,3.56-3.56l66.28-33.5C301.76,193.34,305.68,196.9,303.36,201.72z"/>
	</g>
</g>
<g id="Layer_3">
</g>
<g id="Layer_4">
</g>
<g id="Layer_5">
</g>
<g id="Layer_6" class="st0">
</g>
</svg>
