<?xml version="1.0" encoding="utf-8"?>
<!-- Generator: Adobe Illustrator 25.2.0, SVG Export Plug-In . SVG Version: 6.00 Build 0)  -->
<svg version="1.1" id="Layer_1" xmlns="http://www.w3.org/2000/svg" xmlns:xlink="http://www.w3.org/1999/xlink" x="0px" y="0px"
	 viewBox="0 0 500 500" style="enable-background:new 0 0 500 500;" xml:space="preserve">
<path d="M427.98,188.76L294.23,67.19c-25.25-22.92-63.38-22.92-88.45,0L72.02,188.76C58.06,201.48,50,219.56,50,238.72v144.14
	C50,419.92,79.54,450,116.25,450h267.5c36.53,0,66.25-30.08,66.25-67.14V238.72C450,219.56,441.94,201.48,427.98,188.76z
	 M396.46,356.89c0,28.11-21.66,44.05-48.52,44.05H151.88c-26.68,0-48.52-15.94-48.52-44.05V247.14c0-14.5,5.91-28.47,16.12-38.14
	l98.12-92.57c18.44-17.37,46.37-17.37,64.82,0L380.35,209c10.38,9.67,16.11,23.63,16.11,38.14V356.89z"/>
</svg>
