<?xml version="1.0" encoding="utf-8"?>
<!-- Generator: Adobe Illustrator 25.2.0, SVG Export Plug-In . SVG Version: 6.00 Build 0)  -->
<svg version="1.1" xmlns="http://www.w3.org/2000/svg" xmlns:xlink="http://www.w3.org/1999/xlink" x="0px" y="0px"
	 viewBox="0 0 500 500" style="enable-background:new 0 0 500 500;" xml:space="preserve">
<style type="text/css">
	.st0{display:none;}
	.st1{display:inline;fill:none;}
	.st2{display:inline;}
</style>
<g id="Layer_7" class="st0">
	<rect x="-6.11" y="-6.11" class="st1" width="512.21" height="512.21"/>
</g>
<g id="Layer_1" class="st0">
	<path class="st2" d="M427.98,188.76L294.23,67.19c-25.25-22.92-63.38-22.92-88.45,0L72.02,188.76C58.06,201.48,50,219.56,50,238.72
		v144.14C50,419.92,79.54,450,116.25,450h267.5c36.53,0,66.25-30.08,66.25-67.14V238.72C450,219.56,441.94,201.48,427.98,188.76z
		 M396.46,356.89c0,28.11-21.66,44.05-48.52,44.05H151.88c-26.68,0-48.52-15.94-48.52-44.05V247.14c0-14.5,5.91-28.47,16.12-38.14
		l98.12-92.57c18.44-17.37,46.37-17.37,64.82,0L380.35,209c10.38,9.67,16.11,23.63,16.11,38.14V356.89z"/>
</g>
<g id="Layer_2" class="st0">
	<g class="st2">
		<path d="M326.53,50.09H173.3c-68.06,0-123.3,55.06-123.3,123.3v153.23c0,68.06,55.23,123.3,123.3,123.3h153.23
			c68.24,0,123.47-55.23,123.47-123.3V173.39C450,105.14,394.77,50.09,326.53,50.09z M423.45,317.71
			c0,58.44-47.39,105.84-105.84,105.84H182.21c-58.44,0-105.84-47.39-105.84-105.84V182.29c0-58.44,47.39-105.84,105.84-105.84
			h135.41c58.44,0,105.84,47.39,105.84,105.84V317.71z"/>
		<path d="M311.2,148.98l-101.56,46.68c-7.31,3.39-13.01,9.44-16.21,16.75l-44.19,102.63c-10.33,24.23,14.61,48.64,38.66,37.59
			l101.38-46.68c7.31-3.39,13.19-9.44,16.39-16.75l44.01-102.63C360.2,162.34,335.08,137.93,311.2,148.98z M303.36,201.72
			l-31.72,67.17c-0.71,1.6-1.96,2.85-3.56,3.56l-66.28,33.5c-4.63,2.32-8.55-1.43-6.24-6.06l31.71-67.17
			c0.71-1.6,1.96-2.85,3.56-3.56l66.28-33.5C301.76,193.34,305.68,196.9,303.36,201.72z"/>
	</g>
</g>
<g id="Layer_3" class="st0">
	<path class="st2" d="M213.05,65.54l-10.39-3.92c-12.42-4.69-25.69,4.48-25.69,17.76v148.31c-10.91-6.5-23.49-10.07-37.13-10.07
		c-46.48,0-82.73,43.41-70.96,91.51c6.65,27.17,29.65,48.66,57.17,53.64c45.28,8.19,84.68-24.93,86.78-67.97
		c0.21-1.26,0.21-2.73,0.21-3.98V111.55c0-3.69,3.69-6.25,7.15-4.95l150.75,56.6c3.81,1.43,6.34,5.08,6.34,9.15v131.87
		c-10.28-6.08-22.44-9.44-35.24-9.44c-43.7,0-78.13,39.41-70.16,84.55c5.02,28.44,28.23,51.83,56.63,57.04
		c44.5,8.17,83.46-24.98,84.63-67.76c0.21-0.84,0.21-1.47,0.21-2.31V148.19c0-4.55-2.82-8.62-7.08-10.22L213.05,65.54z"/>
</g>
<g id="Layer_4">
	<path d="M170,110c-38.75,0-69.96,31.39-69.96,69.95c0,38.75,31.21,69.96,69.96,69.96c38.56,0,69.95-31.21,69.95-69.96
		C239.95,141.39,208.56,110,170,110z M217.89,270h-5.2c-12.92,6.28-27.26,10.04-42.69,10.04s-29.78-3.77-42.87-10.04h-5.2
		C82.29,270,50,302.29,50,341.93v18.12C50,376.55,63.45,390,79.95,390h180.09c16.5,0,29.95-13.45,29.95-29.96v-18.12
		C290,302.29,257.71,270,217.89,270z M349.91,130.09c-33,0-59.91,26.73-59.91,59.91c0,33.18,26.91,59.91,59.91,59.91
		c33.18,0,60.09-26.73,60.09-59.91C410,156.82,383.09,130.09,349.91,130.09z M379.87,270h-2.33c-8.61,3.05-17.76,5.02-27.62,5.02
		c-9.69,0-18.83-1.97-27.62-5.02h-2.33c-12.74,0-24.57,3.59-34.8,9.69c15.25,16.32,24.75,38.21,24.75,62.24v24.04
		c0,1.44-0.36,2.69-0.36,3.95h110.31c16.68,0,30.13-13.45,30.13-29.96C450,301.21,418.61,270,379.87,270z"/>
</g>
<g id="Layer_6" class="st0">
</g>
</svg>
